# xmcd CD database file
#
# Track frame offsets:
#	150
#	15198
#	27916
#	39348
#	51204
#	65461
#	77091
#	91080
#	104098
#	117707
#	130861
#	143499
#	157309
#	170543
#	184895
#	198601
#	211286
#	225259
#
# Disc length: 3174 seconds
#
# Revision: 0
# Processed by: cddbd v1.5.1PL2 Copyright (c) Steve Scherf et al.
# Submitted via: CDex 1.70beta2
#
DISCID=f30c6412
DTITLE=kid ory - classic jazz archive - 1922-1927
DYEAR=2004
DGENRE=Jazz
TTITLE0=Ory's Creole Trombone
TTITLE1=Gut Bucket Blues
TTITLE2=Come Back Sweet Papa
TTITLE3=Georgia Grind
TTITLE4=Oriental Strut
TTITLE5=Muskat Ramble
TTITLE6=Snag It
TTITLE7=29th And Dearborn
TTITLE8=Too Bad
TTITLE9=Sugar Foot Stomp
TTITLE10=Wa Wa Wa
TTITLE11=Dropping Shucks
TTITLE12=Who's It
TTITLE13=The King Of The Zulus
TTITLE14=Big Fat Ma And Skinny Pa
TTITLE15=Sweet Little Papa
TTITLE16=Gatemouth
TTITLE17=Papa Dip
EXTD=YEAR: 2004
EXTT0=
EXTT1=
EXTT2=
EXTT3=
EXTT4=
EXTT5=
EXTT6=
EXTT7=
EXTT8=
EXTT9=
EXTT10=
EXTT11=
EXTT12=
EXTT13=
EXTT14=
EXTT15=
EXTT16=
EXTT17=
PLAYORDER=
